<?xml version="1.0" encoding="UTF-8" standalone="no"?>
<!-- Created with Inkscape (http://www.inkscape.org/) -->

<svg
   width="128"
   height="128"
   viewBox="0 0 33.866666 33.866668"
   version="1.1"
   id="svg6121"
   inkscape:version="1.2 (dc2aedaf03, 2022-05-15)"
   sodipodi:docname="logo.svg"
   xmlns:inkscape="http://www.inkscape.org/namespaces/inkscape"
   xmlns:sodipodi="http://sodipodi.sourceforge.net/DTD/sodipodi-0.dtd"
   xmlns="http://www.w3.org/2000/svg"
   xmlns:svg="http://www.w3.org/2000/svg"
   xmlns:rdf="http://www.w3.org/1999/02/22-rdf-syntax-ns#"
   xmlns:cc="http://creativecommons.org/ns#"
   xmlns:dc="http://purl.org/dc/elements/1.1/">
  <defs
     id="defs6115" />
  <sodipodi:namedview
     id="base"
     pagecolor="#ffffff"
     bordercolor="#666666"
     borderopacity="1.0"
     inkscape:pageopacity="0.0"
     inkscape:pageshadow="2"
     inkscape:zoom="3.959798"
     inkscape:cx="-9.9752564"
     inkscape:cy="65.154839"
     inkscape:document-units="mm"
     inkscape:current-layer="layer1"
     showgrid="false"
     units="px"
     inkscape:pagecheckerboard="true"
     inkscape:window-width="1792"
     inkscape:window-height="1051"
     inkscape:window-x="0"
     inkscape:window-y="0"
     inkscape:window-maximized="1"
     inkscape:showpageshadow="0"
     inkscape:deskcolor="#d1d1d1" />
  <metadata
     id="metadata6118">
    <rdf:RDF>
      <cc:Work
         rdf:about="">
        <dc:format>image/svg+xml</dc:format>
        <dc:type
           rdf:resource="http://purl.org/dc/dcmitype/StillImage" />
        <dc:title />
      </cc:Work>
    </rdf:RDF>
  </metadata>
  <g
     inkscape:label="Ebene 1"
     inkscape:groupmode="layer"
     id="layer1"
     transform="translate(0,-263.13332)">
    <rect
       style="fill:#000000;fill-opacity:1;stroke-width:0.26458332"
       id="rect6123"
       width="33.866665"
       height="25.4"
       x="0"
       y="265.77914"
       rx="1.3229166"
       ry="1.3229166" />
    <rect
       style="fill:#d7d3d2;fill-opacity:1;stroke-width:0.25975928"
       id="rect6123-6"
       width="33.337502"
       height="24.870832"
       x="0.26458332"
       y="266.04373"
       rx="1.3022461"
       ry="1.2953559" />
    <path
       style="fill:#ffffff;fill-opacity:1;stroke-width:0.24316575"
       d="m 0.26458402,269.21874 h 33.33749898 -5e-6 v 20.56069 c 0,0.62887 -0.580802,1.13514 -1.302243,1.13514 H 1.5668292 c -0.7214442,0 -1.30224597,-0.50627 -1.30224587,-1.13514 z"
       id="rect6123-3-5"
       inkscape:connector-curvature="0"
       sodipodi:nodetypes="cccssssc" />
    <rect
       style="fill:#b8b6b3;fill-opacity:1;stroke-width:0.02679212"
       id="rect6123-6-2"
       width="33.337502"
       height="0.26458332"
       x="0.26458332"
       y="269.21875"
       rx="0"
       ry="0" />
    <path
       style="fill:#f4d7d7;fill-opacity:1;stroke-width:0.270147"
       d="m 13.052511,276.36249 c 1.538564,0 2.777193,0.35106 2.777193,1.24724 v 19.39026 h -5.554388 v -19.01984 c 0,-0.89618 1.238629,-1.61766 2.777195,-1.61766 z"
       id="rect6748"
       inkscape:connector-curvature="0"
       sodipodi:nodetypes="ssccss" />
    <path
       style="fill:#f4d7d7;fill-opacity:1;stroke-width:0.298137"
       d="m 20.814156,271.86456 c 1.538565,0 2.777194,0.87873 2.777194,1.97024 v 23.16519 H 18.036962 V 273.8348 c 0,-1.09151 1.238629,-1.97024 2.777194,-1.97024 z"
       id="rect6748-7"
       inkscape:connector-curvature="0"
       sodipodi:nodetypes="ssccss" />
    <path
       style="fill:#f4d7d7;fill-opacity:1;stroke-width:0.276988"
       d="m 28.575803,275.30417 c 1.538566,0 2.777194,0.75848 2.777194,1.70062 v 19.9952 h -5.554388 v -19.9952 c 0,-0.94214 1.238629,-1.70062 2.777194,-1.70062 z"
       id="rect6748-0"
       inkscape:connector-curvature="0"
       sodipodi:nodetypes="ssccss" />
    <path
       style="fill:#f4d7d7;fill-opacity:1;stroke-width:0.23629"
       d="m 5.290864,281.21119 c 1.538564,0 2.777193,0.95463 2.777193,1.64025 v 14.14855 H 2.5136698 v -14.16805 c 0,-0.68562 1.2386282,-1.62075 2.7771942,-1.62075 z"
       id="path172"
       inkscape:connector-curvature="0"
       sodipodi:nodetypes="ssccss" />
  </g>
</svg>
